<svg viewBox="0 0 1024 1024" version="1.1" xmlns="http://www.w3.org/2000/svg"><path fill="#FF9C01" d="M512 64C759.3999974400002 64 960 264.60000051200007 960 512 960 759.39999744 759.3999974400002 960 512 960 264.60000255999984 960 64 759.39999744 64 512 64 264.60000051200007 264.60000255999984 64 512 64ZM512 672C485.49032960000005 672 464 693.4903296000001 464 720 464 746.5096704 485.49032960000005 768 512 768 538.5096704 768 560 746.5096704 560 720 560 693.4903296000001 538.5096704 672 512 672ZM512 261.528896512C487.9658086399999 261.528896512 468.30944256000004 280.272572416 466.17535488 304L466.17535488 304 480 608 544 608 556.6596198399999 314.00234700799996C557.03861248 311.64563455999996 557.23554816 309.228040192 557.23554816 306.764447744 557.23554816 281.781542912 536.9829068800002 261.528896512 512 261.528896512Z"/></svg>