<?xml version="1.0" standalone="no"?><!DOCTYPE svg PUBLIC "-//W3C//DTD SVG 1.1//EN" "http://www.w3.org/Graphics/SVG/1.1/DTD/svg11.dtd"><svg t="1679307342505" class="icon" viewBox="0 0 1024 1024" version="1.1" xmlns="http://www.w3.org/2000/svg" p-id="6396" width="16" height="16" xmlns:xlink="http://www.w3.org/1999/xlink"><path d="M868.266667 960H155.733333C104.533333 960 64 919.466667 64 868.266667V155.733333C64 104.533333 104.533333 64 155.733333 64h714.666667C919.466667 64 960 104.533333 960 155.733333v714.666667c0 49.066667-40.533333 89.6-91.733333 89.6zM155.733333 106.666667C128 106.666667 106.666667 128 106.666667 155.733333v714.666667C106.666667 896 128 917.333333 155.733333 917.333333h714.666667c27.733333 0 49.066667-21.333333 49.066667-49.066666V155.733333C917.333333 128 896 106.666667 868.266667 106.666667H155.733333z" p-id="6397"></path><path d="M780.8 812.8c-12.8 0-21.333333-8.533333-21.333333-21.333333v-490.666667c0-23.466667-19.2-42.666667-42.666667-42.666667s-42.666667 19.2-42.666667 42.666667v426.666667c0 46.933333-38.4 85.333333-85.333333 85.333333h-21.333333c-46.933333 0-85.333333-38.4-85.333334-85.333333v-426.666667c0-23.466667-19.2-42.666667-42.666666-42.666667s-42.666667 19.2-42.666667 42.666667v426.666667c0 46.933333-38.4 85.333333-85.333333 85.333333s-85.333333-38.4-85.333334-85.333333v-490.666667c0-12.8 8.533333-21.333333 21.333334-21.333333s21.333333 8.533333 21.333333 21.333333v490.666667c0 23.466667 19.2 42.666667 42.666667 42.666666s42.666667-19.2 42.666666-42.666666v-426.666667c0-46.933333 38.4-85.333333 85.333334-85.333333s85.333333 38.4 85.333333 85.333333v426.666667c0 23.466667 19.2 42.666667 42.666667 42.666666h21.333333c23.466667 0 42.666667-19.2 42.666667-42.666666v-426.666667c0-46.933333 38.4-85.333333 85.333333-85.333333s85.333333 38.4 85.333333 85.333333v490.666667c0 10.666667-10.666667 21.333333-21.333333 21.333333z" p-id="6398"></path></svg>