<?xml version="1.0" standalone="no"?><!DOCTYPE svg PUBLIC "-//W3C//DTD SVG 1.1//EN" "http://www.w3.org/Graphics/SVG/1.1/DTD/svg11.dtd"><svg t="1679307166749" class="icon" viewBox="0 0 1024 1024" version="1.1" xmlns="http://www.w3.org/2000/svg" p-id="3735" width="16" height="16" xmlns:xlink="http://www.w3.org/1999/xlink"><path d="M512 128c40.846 0 79.567 11.58 108.984 32.378 31.496 22.27 50.63 53.95 51.01 89.057L672 250.5v5.492h87.344l9.52 14.04a393.625 393.625 0 0 1 5.7 8.649l78.89-57.625 0.618 0.86c20.105 28.481 13.71 67.93-14.548 88.57l-34.557 25.243c19.437 44.545 31.605 93.396 35.59 144.271H960c0 35.346-28.654 64-64 64l-54.772 0.003c-4.012 70.023-23.51 135.778-54.925 191.721l69.092 66.941-0.742 0.754c-24.662 24.642-64.624 25.027-89.756 0.678l-14.974-14.506c-34.242 42.453-76.657 75.953-124.859 96.795l-0.983 0.412-1.259 0.505-1.816 0.707-2.535 0.962-4.72 1.752-3.263 1.194-5.884 2.132c-16.117 5.808-33.95-2.107-40.454-17.956l-49.666-121.022-51.583 122.348c-6.553 15.544-24.047 23.332-39.983 17.798l-5.04-1.758-4.884-1.723-4.504-1.616-2.073-0.758-2.342-0.875-0.99-0.38-1.26-0.496-0.689-0.283-4.05-1.747c-47.75-21.03-89.775-54.53-123.711-96.866l-15.876 15.38c-25.132 24.35-65.094 23.965-89.756-0.677l-0.742-0.754 70.134-67.95c-31.08-55.712-50.375-121.094-54.363-190.713L128 544c-34.993 0-63.426-28.084-63.991-62.942L64 480h119.443c3.958-50.536 15.992-99.076 35.203-143.382l-35.774-26.131c-28.257-20.64-34.653-60.09-14.548-88.572l0.617-0.86 79.984 58.425a393.822 393.822 0 0 1 6.21-9.447l9.521-14.04 87.344-0.001V250.5c0-35.53 19.201-67.628 51.016-90.122C432.433 139.579 471.154 128 512 128z m212.906 191.992H299.093l-0.21 0.346c-33.665 55.607-52.471 123.084-52.876 194.304l-0.007 2.35c0 137.064 68.47 256.505 167.203 305.483l2.828 1.375 69.365-164.526a32 32 0 0 1 17.338-17.172c16.35-6.71 35.043 1.105 41.753 17.455l66.745 162.641 1.964-0.983c96.44-49.201 163.321-165.805 164.78-299.8l0.024-4.473c0-72.086-18.848-140.436-52.884-196.654l-0.21-0.346zM512 192c-54.373 0-95.177 28.465-95.988 57.616l-0.012 0.884v5.492h192V250.5c0-29.457-41.077-58.5-96-58.5z" fill="#000000" fill-opacity=".65" p-id="3736"></path></svg>