<svg viewBox="0 0 1024 1024" version="1.1" xmlns="http://www.w3.org/2000/svg"><g fill="none" fill-rule="evenodd"><path fill="#85939B" d="M559.5041082514285 37.221904018285706L976.5912649142857 454.3090592914285C1005.1553279999999 482.87312164571426 1005.1553279999999 529.1846173257143 976.5912649142857 557.74867968L559.5041082514285 974.8358363428571C530.9400458971428 1003.3998994285713 484.62855021714284 1003.3998994285713 456.0644878628571 974.8358363428571L38.97733258971428 557.74867968C10.413270096457142 529.1846173257143 10.413270096457142 482.87312164571426 38.97733258971428 454.3090592914285L353.28 139.92228571428572 434.65150756571427 221.31536896C430.8016903314286 229.12927012571427 428.2172437942857 237.67863076571427 427.1656338285714 246.69598281142856L426.6348756114286 255.85942674285715C426.6348756114286 286.43940864 444.1733602742857 312.9230570057143 469.7402346057143 325.80027977142856L469.7402346057143 325.80027977142856 469.7402346057143 649.6624054857142C444.1733602742857 662.5396282514286 426.6348756114286 689.0232766171429 426.6348756114286 719.6032585142857 426.6348756114286 762.8268836571427 461.67454866285715 797.8665618285713 504.8981767314286 797.8665618285713 548.1218040685714 797.8665618285713 583.16147712 762.8268836571427 583.16147712 719.6032585142857L583.16147712 719.6032585142857 582.70223872 711.0756095999999C579.7879566628571 684.1815252114285 563.2489742628571 661.3746666057142 540.1298468571429 649.6995891199999L540.1298468571429 649.6995891199999 540.0156335542857 326.73103213714285 677.7829749028572 464.5484061257142C675.0497265371428 472.5154859885714 673.5661129142857 481.06306194285713 673.5661129142857 489.95715437714284 673.5661129142857 533.1807817142857 708.6057859657143 568.2204554971428 751.8294162285714 568.2204554971428 795.0530413714284 568.2204554971428 830.0927122285714 533.1807817142857 830.0927122285714 489.95715437714284 830.0927122285714 446.73352704 795.0530413714284 411.69385398857145 751.8294162285714 411.69385398857145 743.5812351999999 411.69385398857145 735.6310703542856 412.9698040685714 728.1655354514286 415.3350890057143L728.1655354514286 415.3350890057143 582.0207813485714 269.2478442057143C582.7707026285715 264.8973948342857 583.16147712 260.4240464457143 583.16147712 255.85942674285715 583.16147712 212.63579940571427 548.1218040685714 177.5961263542857 504.8981767314286 177.5961263542857 500.33355775999996 177.5961263542857 495.86020864 177.9869008457143 491.5097592685714 178.7368221257143L491.5097592685714 178.7368221257143 402.944 90.2582857142857 456.0644878628571 37.221904018285706C484.62855021714284 8.657841525028571 530.9400458971428 8.657841525028571 559.5041082514285 37.221904018285706Z"/><path fill="#21A04A" d="M926.6126438399999 767.8353627428571L637.9046619428572 960.3073535999999C634.5435355428572 962.5480996571428 630.0023222857143 961.6398628571428 627.7615689142857 958.2787364571428 626.9605741714286 957.0772333714286 626.5331419428571 955.6655250285714 626.5331419428571 954.2215021714286L626.5331419428571 569.2775226514286C626.5331419428571 565.2379538285714 629.8078573714286 561.9632369371429 633.8474276571428 561.9632369371429 635.2914505142857 561.9632369371429 636.7031588571429 562.3906691657144 637.9046619428572 563.1916690285715L926.6126438399999 755.6636598857143C929.9737680457142 757.9044059428571 930.8820106971428 762.4456192 928.6412617142856 765.8067456 928.1056007314286 766.6102345142857 927.4161349485714 767.2997010285713 926.6126438399999 767.8353627428571Z"/></g></svg>