<svg viewBox="0 0 1024 1024" version="1.1" xmlns="http://www.w3.org/2000/svg"><path fill="#908f8f" d="M577.28 488.96000000000004l118.4 65.28c15.36 8.32 21.12 28.16 12.16 43.52l-30.72 55.68c-8.32 15.36-28.16 21.12-43.52 12.16l-167.68-92.8c-11.52-6.4-17.92-19.2-16-31.36v-253.44c0-17.92 14.08-32 32-32h64c17.92 0 32 14.08 32 32V488.96000000000004zM513.28 129.27999999999975c-211.84 0-384 172.16-384 384s172.16 384 384 384 384-172.16 384-384S725.12 129.27999999999975 513.28 129.27999999999975z"/></svg>