<svg viewBox="0 0 1024 1024" version="1.1" xmlns="http://www.w3.org/2000/svg"><path fill="#fdcf39" fill-rule="evenodd" d="M384 805.1200000000026h256c17.92 0 32 14.08 32 32s-14.08 32-32 32h-256c-17.92 0-32-14.08-32-32S366.0799999999999 805.1200000000026 384 805.1200000000026zM695.6799999999998 689.2799999999988l-3.84 24.32c-2.56 15.36-16 27.52-31.36 27.52H364.8000000000002c-16.64 0-30.08-12.16-32-28.8l-2.56-21.76c-102.4-61.44-170.24-173.44-170.24-301.44 0-194.56 157.44-352 352-352 194.56 0 352 157.44 352 352C864 515.8399999999965 796.8000000000002 627.1999999999971 695.6799999999998 689.2799999999988zM385.2800000000002 933.1200000000026h253.44c3.84 0 6.4 2.56 6.4 6.4 0 2.56-1.28 5.12-3.84 5.76l-81.92 32.64c-30.72 12.16-64.64 12.16-95.36 0l-81.92-32.64c-3.2-1.28-5.12-5.12-3.84-8.32C380.15999999999985 934.4000000000015 382.7199999999998 933.1200000000026 385.2800000000002 933.1200000000026z" clip-rule="evenodd"/></svg>