<?xml version="1.0" encoding="utf-8"?>
<!-- Generator: Adobe Illustrator 24.0.1, SVG Export Plug-In . SVG Version: 6.00 Build 0)  -->
<svg version="1.1" id="图层_1" xmlns="http://www.w3.org/2000/svg" xmlns:xlink="http://www.w3.org/1999/xlink" x="0px"
     y="0px"
     viewBox="0 0 12 12" style="enable-background:new 0 0 12 12;" xml:space="preserve">
<style type="text/css">
	.st0{fill:#47A9DC;}
</style>
    <title>icon_12_bj2</title>
    <g id="现有界面截图">
	<g id="Group-4" transform="translate(-29.000000, -882.000000)">
		<g id="icon_12_bj" transform="translate(29.000000, 726.000000)">
			<path id="icon_12_bj2" class="st0" d="M6,156c3.31,0,6,2.69,6,6s-2.69,6-6,6s-6-2.69-6-6S2.69,156,6,156z M9,165H3v1h6V165z
				 M5.77,159.81l-1.92,3.32l0.18,1.68l1.55-0.68l1.92-3.32L5.77,159.81z M6.9,157.88l-0.05,0.07L6.24,159l1.73,1l0.6-1.04
				c0.12-0.21,0.07-0.48-0.11-0.63l-0.07-0.05l-0.87-0.5C7.31,157.65,7.05,157.7,6.9,157.88z"/>
		</g>
	</g>
</g>
</svg>
