<svg viewBox="0 0 1024 1024" version="1.1" xmlns="http://www.w3.org/2000/svg">
    <path fill="#9de1a9"
          d="M512 128c-211.84 0-384 172.16-384 384s172.16 384 384 384 384-172.16 384-384S723.84 128 512 128zM480 768C462.08 768 448 753.9200000000001 448 736v-256C448 462.0799999999999 462.08 448 480 448h64C561.92 448 576 462.0799999999999 576 480v256C576 753.9200000000001 561.92 768 544 768H480zM480 384C462.08 384 448 369.9200000000001 448 352v-64C448 270.0799999999999 462.08 256 480 256h64C561.92 256 576 270.0799999999999 576 288v64C576 369.9200000000001 561.92 384 544 384H480z"/>
</svg>
