<?xml version="1.0" encoding="utf-8"?>
<!-- Generator: Adobe Illustrator 24.0.1, SVG Export Plug-In . SVG Version: 6.00 Build 0)  -->
<svg version="1.1" id="图层_1" xmlns="http://www.w3.org/2000/svg" xmlns:xlink="http://www.w3.org/1999/xlink" x="0px"
     y="0px"
     viewBox="0 0 12 12" style="enable-background:new 0 0 12 12;" xml:space="preserve">
<style type="text/css">
	.st0{fill:#FDCE36;}
</style>
    <title>icon_12_bj</title>
    <g id="现有界面截图">
	<g id="Group-4" transform="translate(-29.000000, -900.000000)">
		<g id="icon_12_bj" transform="translate(29.000000, 726.000000)">
			<path class="st0" d="M6,174c3.31,0,6,2.69,6,6s-2.69,6-6,6s-6-2.69-6-6S2.69,174,6,174z M5.76,178.67l-2,3.46l0.37,1.37
				l1.37-0.37l2-3.46L5.76,178.67z M7.44,176.75c-0.24-0.14-0.54-0.06-0.68,0.18l0,0l-0.6,1.04l1.73,1l0.6-1.04
				c0.14-0.24,0.06-0.54-0.18-0.68l0,0L7.44,176.75z"/>
		</g>
	</g>
</g>
</svg>
