<?xml version="1.0" standalone="no"?><!DOCTYPE svg PUBLIC "-//W3C//DTD SVG 1.1//EN" "http://www.w3.org/Graphics/SVG/1.1/DTD/svg11.dtd"><svg t="1679307246306" class="icon" viewBox="0 0 1024 1024" version="1.1" xmlns="http://www.w3.org/2000/svg" p-id="5142" width="16" height="16" xmlns:xlink="http://www.w3.org/1999/xlink"><path d="M514.145 907.826c-4.503 0-9.009-0.983-13.186-2.955-2.99-1.411-74.065-35.17-146.179-88.15C252.808 741.803 201.104 667.374 201.104 595.5v-411c0-15.493 11.475-28.591 26.833-30.628l282.145-37.429a30.96 30.96 0 0 1 8.188 0.008l277.855 37.429c15.331 2.065 26.771 15.15 26.771 30.62v411c0 69.353-50.867 142.982-151.188 218.846-70.925 53.633-140.815 88.755-143.757 90.224a30.892 30.892 0 0 1-13.806 3.256zM262.896 211.568V595.5c0 26.678 12.581 56.058 37.391 87.326 21.695 27.34 52.338 55.635 91.078 84.096 49.419 36.309 99.151 63.345 122.399 75.294 23.103-12.503 72.58-40.705 121.36-77.679 38.047-28.839 68.136-57.207 89.432-84.317 24.251-30.873 36.547-59.377 36.547-84.72V211.513l-246.99-33.271-251.217 33.326z" fill="" p-id="5143"></path></svg>