<svg viewBox="0 0 1024 1024" version="1.1" xmlns="http://www.w3.org/2000/svg"><g fill="none" fill-rule="evenodd"><g fill="#85939B" fill-rule="nonzero"><path d="M646.7140798171428 357.04574464L914.2857142857142 357.04574464 583.4762042514285 77.06823409371428 583.4762042514285 303.4643492571428C583.4762042514285 332.9046769371428 611.9042399085714 357.04574464 646.7140798171428 357.04574464Z"/><path d="M514.9008201142857 306.8990544457143L514.9008201142857 73.14285714285714 264.8501379657143 73.14285714285714C232.82508580571428 73.14285714285714 206.60167314285712 95.32123691885712 206.60167314285712 122.40633782857142L206.60167314285712 831.9182189714286C206.60167314285712 859.0033188571427 232.82508580571428 881.1817033142856 264.8501379657143 881.1817033142856L851.5119689142857 881.1817033142856C883.5370203428571 881.1817033142856 909.7604315428572 859.0033188571427 909.7604315428572 831.9182189714286L909.7604315428572 407.0943012571429 633.3703080228571 407.0943012571429C567.9278094628571 407.0943012571429 514.9008201142857 362.24686957714283 514.9008201142857 306.8990544457143Z"/><path d="M168.89101319314284 829.0723254857143L168.89101319314284 142.8182980022857 167.96275082971428 142.8182980022857C135.937698304 142.8182980022857 109.71428571428571 164.9966774857143 109.71428571428571 192.0817788342857L109.71428571428571 901.5936585142857C109.71428571428571 928.6787657142856 135.937698304 950.8571428571428 167.96275082971428 950.8571428571428L754.6245829485713 950.8571428571428C786.6496351085714 950.8571428571428 812.8730477714284 928.6787657142856 812.8730477714284 901.5936585142857L812.8730477714284 901.201122742857 254.17512082285714 901.201122742857C207.06580406857142 901.201122742857 168.89101319314284 868.9149001142856 168.89101319314284 829.0723254857143Z"/></g><path fill="#21A04A" d="M953.9742198491427 751.684281782857L665.2662374399999 944.1562697142856C661.9051132342857 946.3970194285714 657.3638970514286 945.4887760457142 655.1231480685714 942.12765184 654.3221482057143 940.9261524114286 653.8947159771427 939.5144389485714 653.8947159771427 938.0704160914286L653.8947159771427 553.1264394971428C653.8947159771427 549.08687104 657.1694328685713 545.8121537828571 661.2090016914285 545.8121537828571 662.6530245485714 545.8121537828571 664.0647380114286 546.2395862308572 665.2662374399999 547.0405859474286L953.9742198491427 739.5125745371428C957.3353439817142 741.75332352 958.2435871451428 746.2945397028572 956.0028377234286 749.6556639085715 955.4671770331428 750.4591550171428 954.7777108845714 751.1486208 953.9742198491427 751.684281782857Z"/></g></svg>