<svg viewBox="0 0 1024 1024" version="1.1" xmlns="http://www.w3.org/2000/svg"><path fill="#ff9c01" d="M768 555.8857142857142c117.02857142857142 0 212.1142857142857 95.08571428571429 212.1142857142857 212.1142857142857 0 117.02857142857142-95.08571428571429 212.1142857142857-212.1142857142857 212.1142857142857s-212.1142857142857-95.08571428571429-212.1142857142857-212.1142857142857C563.1999999999999 650.9714285714285 658.2857142857142 555.8857142857142 768 555.8857142857142zM768 841.1428571428571c-14.628571428571428 0-21.94285714285714 7.314285714285714-21.94285714285714 21.94285714285714 0 14.628571428571428 7.314285714285714 21.94285714285714 21.94285714285714 21.94285714285714s21.94285714285714-7.314285714285714 21.94285714285714-21.94285714285714C789.9428571428572 848.4571428571429 782.6285714285714 841.1428571428571 768 841.1428571428571zM768 643.6571428571428c-14.628571428571428 0-21.94285714285714 7.314285714285714-21.94285714285714 21.94285714285714l0 0 7.314285714285714 138.97142857142856h29.257142857142856l7.314285714285714-138.97142857142856c0 0 0 0 0 0C789.9428571428572 658.2857142857142 782.6285714285714 643.6571428571428 768 643.6571428571428z"/><path fill="#afb1b3" d="M519.3142857142857 760.6857142857143c0-58.51428571428571 21.94285714285714-117.02857142857142 58.51428571428571-160.9142857142857C555.8857142857142 614.4 533.9428571428571 621.7142857142857 512 621.7142857142857c-73.14285714285714 0-124.34285714285713-58.51428571428571-124.34285714285713-124.34285714285713S438.85714285714283 373.02857142857135 512 373.02857142857135s124.34285714285713 58.51428571428571 124.34285714285713 124.34285714285713c0 29.257142857142856-7.314285714285714 51.199999999999996-21.94285714285714 73.14285714285714C658.2857142857142 533.9428571428571 709.4857142857142 512 768 512c51.199999999999996 0 95.08571428571429 14.628571428571428 131.65714285714284 36.57142857142857-7.314285714285714-14.628571428571428-14.628571428571428-36.57142857142857-14.628571428571428-51.199999999999996 0-51.199999999999996 36.57142857142857-102.39999999999999 80.45714285714286-117.02857142857142-14.628571428571428-43.88571428571428-29.257142857142856-87.77142857142856-51.199999999999996-124.34285714285713-43.88571428571428 21.94285714285714-102.39999999999999 14.628571428571428-138.97142857142856-29.257142857142856-36.57142857142857-36.57142857142857-43.88571428571428-95.08571428571429-29.257142857142856-138.97142857142856C716.8000000000001 65.82857142857142 672.9142857142856 43.88571428571428 629.0285714285714 36.57142857142857 607.0857142857143 80.45714285714286 563.1999999999999 117.02857142857142 512 117.02857142857142c-51.199999999999996 0-102.39999999999999-36.57142857142857-117.02857142857142-80.45714285714286C343.77142857142854 43.88571428571428 307.2 65.82857142857142 263.3142857142857 87.77142857142856c21.94285714285714 43.88571428571428 14.628571428571428 102.39999999999999-29.257142857142856 138.97142857142856S146.28571428571428 277.9428571428571 95.08571428571429 256C73.14285714285714 292.57142857142856 58.51428571428571 336.4571428571428 43.88571428571428 380.34285714285716c51.199999999999996 21.94285714285714 80.45714285714286 65.82857142857142 80.45714285714286 117.02857142857142 0 51.199999999999996-36.57142857142857 102.39999999999999-80.45714285714286 117.02857142857142C58.51428571428571 658.2857142857142 73.14285714285714 702.1714285714285 95.08571428571429 738.742857142857 146.28571428571428 716.8000000000001 204.79999999999998 731.4285714285713 241.37142857142854 768c36.57142857142857 36.57142857142857 43.88571428571428 95.08571428571429 29.257142857142856 138.97142857142856 36.57142857142857 21.94285714285714 80.45714285714286 43.88571428571428 124.34285714285713 51.199999999999996C409.59999999999997 914.2857142857142 453.48571428571427 877.7142857142857 512 877.7142857142857c14.628571428571428 0 29.257142857142856 7.314285714285714 43.88571428571428 7.314285714285714C533.9428571428571 848.4571428571428 519.3142857142857 811.8857142857142 519.3142857142857 760.6857142857143z"/></svg>