<svg viewBox="0 0 1024 1024" version="1.1" xmlns="http://www.w3.org/2000/svg" style="fill: #747986;"><path fill="#747986" d="M892.342857142857 497.3714285714285c0-51.199999999999996 36.57142857142857-102.39999999999999 80.45714285714286-117.02857142857142-14.628571428571428-43.88571428571428-29.257142857142856-87.77142857142856-51.199999999999996-124.34285714285713-43.88571428571428 21.94285714285714-102.39999999999999 14.628571428571428-138.97142857142856-29.257142857142856-36.57142857142857-36.57142857142857-43.88571428571428-95.08571428571429-29.257142857142856-138.97142857142856C716.8000000000001 65.82857142857142 672.9142857142856 43.88571428571428 629.0285714285714 36.57142857142857 607.0857142857143 80.45714285714286 563.1999999999999 117.02857142857142 512 117.02857142857142c-51.199999999999996 0-102.39999999999999-36.57142857142857-117.02857142857142-80.45714285714286C343.77142857142854 43.88571428571428 307.2 65.82857142857142 263.3142857142857 87.77142857142856c21.94285714285714 43.88571428571428 14.628571428571428 102.39999999999999-29.257142857142856 138.97142857142856S146.28571428571428 277.9428571428571 95.08571428571429 256C73.14285714285714 292.57142857142856 58.51428571428571 336.4571428571428 43.88571428571428 380.34285714285716c51.199999999999996 21.94285714285714 80.45714285714286 65.82857142857142 80.45714285714286 117.02857142857142 0 51.199999999999996-36.57142857142857 102.39999999999999-80.45714285714286 117.02857142857142C58.51428571428571 658.2857142857142 73.14285714285714 702.1714285714285 95.08571428571429 738.742857142857 146.28571428571428 716.8000000000001 204.79999999999998 731.4285714285713 241.37142857142854 768c36.57142857142857 36.57142857142857 43.88571428571428 95.08571428571429 29.257142857142856 138.97142857142856 36.57142857142857 21.94285714285714 80.45714285714286 43.88571428571428 124.34285714285713 51.199999999999996C409.59999999999997 914.2857142857142 453.48571428571427 877.7142857142857 512 877.7142857142857c51.199999999999996 0 102.39999999999999 36.57142857142857 117.02857142857142 80.45714285714286 43.88571428571428-14.628571428571428 87.77142857142856-29.257142857142856 124.34285714285713-51.199999999999996-21.94285714285714-43.88571428571428-14.628571428571428-102.39999999999999 29.257142857142856-138.97142857142856s95.08571428571429-43.88571428571428 138.97142857142856-29.257142857142856c21.94285714285714-36.57142857142857 43.88571428571428-80.45714285714286 51.199999999999996-124.34285714285713C921.5999999999999 599.7714285714285 892.342857142857 548.5714285714286 892.342857142857 497.3714285714285zM512 621.7142857142857c-73.14285714285714 0-124.34285714285713-58.51428571428571-124.34285714285713-124.34285714285713S438.85714285714283 373.02857142857135 512 373.02857142857135s124.34285714285713 58.51428571428571 124.34285714285713 124.34285714285713S577.8285714285714 621.7142857142857 512 621.7142857142857z"></path></svg>