<?xml version="1.0" standalone="no"?><!DOCTYPE svg PUBLIC "-//W3C//DTD SVG 1.1//EN" "http://www.w3.org/Graphics/SVG/1.1/DTD/svg11.dtd"><svg t="1679307306484" class="icon" viewBox="0 0 1024 1024" version="1.1" xmlns="http://www.w3.org/2000/svg" p-id="6052" width="16" height="16" xmlns:xlink="http://www.w3.org/1999/xlink"><path d="M845.334 137v750H178.667V137h666.667m0-83.333H178.667c-46.021 0-83.333 37.313-83.333 83.333v750c0 46.02 37.313 83.332 83.333 83.332h666.667c46.021 0 83.333-37.313 83.333-83.332V137c0-46.02-37.313-83.333-83.333-83.333z" fill="#333333" p-id="6053"></path><path d="M324.5 257.657h375c23.011 0 41.667 18.656 41.667 41.667S722.511 340.99 699.5 340.99h-375c-23.01 0-41.667-18.657-41.667-41.667s18.657-41.666 41.667-41.666zM324.5 470.324h166.667c23.011 0 41.667 18.677 41.667 41.667 0 23.03-18.656 41.667-41.667 41.667H324.5c-23.01 0-41.667-18.637-41.667-41.667 0-22.991 18.657-41.667 41.667-41.667zM324.5 683.011h291.667c23.011 0 41.667 18.656 41.667 41.666s-18.656 41.666-41.667 41.666H324.5c-23.01 0-41.667-18.656-41.667-41.666s18.657-41.666 41.667-41.666z" fill="#333333" p-id="6054"></path></svg>