<svg xmlns="http://www.w3.org/2000/svg" viewBox="0 0 26 25.88" class="design-iconfont">
  <g fill="none" fill-rule="evenodd">
    <g fill-rule="nonzero" opacity=".2">
      <path d="M30,6.01056 L12.0044698,6.01056 C10.3465192,6.01056 9.00223489,7.36351999 9.00223491,9.02112 L9.00223491,23.0704 C7.34428429,23.0704 6,21.71744 6,20.05984 L6,6.01056 C6,4.35295999 7.34428429,3 9.00223491,3 L27.0066824,3 C28.6646331,3 30.0089173,4.35295999 30,6.01056 Z" fill="#9E9E9E" transform="matrix(-1 0 0 1 32 -4)"/>
      <path d="M17.87712,27.07552 L15.15328,29.6112 C14.768,29.9696 14.17664,29.9696 13.79136,29.6112 L11.07648,27.07552 L3.99807999,27.07552 C2.89599999,27.07552 2,26.17056 2,25.06848 L2,9.02112 C2,7.91904 2.89599999,7.02304001 3.99807999,7.01407999 L23.9968,7.01407999 C25.09888,7.01407999 25.99488,7.91007998 25.99488,9.02112 L25.99488,25.07744 C25.99488,26.17952 25.09888,27.07552 23.9968,27.08448 L17.87712,27.08448 L17.87712,27.07552 Z" fill="#6A6A6A" transform="matrix(-1 0 0 1 23.9948 -4)"/>
      <path d="M6.49408,14.53152 L21.49312,14.53152 C22.04864,14.50464 22.47872,14.03872 22.45184,13.4832 C22.42496,12.96352 22.0128,12.5424 21.49312,12.52448 L6.50303999,12.52448 C5.94751998,12.55136 5.51743998,13.01728 5.54432001,13.5728 C5.56224002,14.09248 5.98336,14.5136 6.49408,14.53152 Z M6.49408,19.54912 L16.9952,19.54912 C17.55072,19.52224 17.9808,19.05632 17.95392,18.5008 C17.92704,17.98112 17.51488,17.56 16.9952,17.54208 L6.50303999,17.54208 C5.94751998,17.56896 5.51743998,18.03488 5.54432001,18.5904 C5.56224002,19.11008 5.98336,19.5312 6.49408,19.54912 Z" fill="#D1D1D1" transform="translate(-4 -4)"/>
    </g>
  </g>
</svg>
