<svg viewBox="0 0 1024 1024" version="1.1" xmlns="http://www.w3.org/2000/svg" style="fill: #979BA5;"><path fill-rule="evenodd" d="M512 992C759.423568 992 960 791.423568 960 544 960 296.576432 759.423568 96 512 96 264.576432 96 64 296.576432 64 544 64 791.423568 264.576432 992 512 992ZM424.0418208 765.2789984L485.7953696 825.6050144C494.5302464 834.1316608 507.9372672 834.1316608 516.672144 825.6050144L578.2225536 765.2789984 738.7005216 765.2789984C763.6863328 765.2789984 784 743.749216 784 717.5297792L784 335.749216C784 309.5297808 763.6863328 288.21316672 738.7005216 288L285.29947776 288C260.3136672 288 240 309.31661408 240 335.749216L240 717.7429472C240 743.962384 260.31366656 765.2789952 285.29947776 765.4921632L424.0418208 765.4921632 424.0418208 765.2789984ZM327.3943936 448L696.3851808 448C710.0515072 447.1428576 720.631888 432.2857152 719.9706144 414.5714272 719.3093408 398 709.1698112 384.5714304 696.3851808 384L327.614816 384C313.94849152 384.8571424 303.3681104 399.7142848 304.02938464 417.4285728 304.47023424 434 314.8301904 447.4285696 327.3943936 448ZM328.517056 576L599.2519424 576C613.574096 575.1428576 624.6622144 560.2857152 623.9692064 542.5714272 623.2761984 526 612.6500832 512.5714304 599.2519424 512L328.7480576 512C314.42590496 512.8571424 303.33778688 527.7142848 304.03079488 545.4285728 304.4928 562 315.34991552 575.4285696 328.517056 576Z"></path></svg>