<svg viewBox="0 0 1024 1024" version="1.1" xmlns="http://www.w3.org/2000/svg" style="fill: #85CCA8;"><path fill-rule="evenodd" d="M512 992C759.423568 992 960 791.423568 960 544 960 296.576432 759.423568 96 512 96 264.576432 96 64 296.576432 64 544 64 791.423568 264.576432 992 512 992ZM507.9508384 449.66L589.47368 533.1709984 589.47368 527.78C589.7815616 506.1369888 581.5472416 485.2957216 566.6637216 470.047408 551.7801984 454.7990944 531.5279424 446.4555936 510.5627648 446.9350016 510.5627648 449.6610016 510.5627648 449.6610016 507.9508384 449.6609984L507.9508384 449.66ZM394.9691328 471.2575008L434.4396096 511.6949984 434.4396096 530.566C434.1317312 552.2090112 442.366048 573.0502784 457.2495712 588.298592 472.1330912 603.5469056 492.3853472 611.8904064 513.350528 611.4109984 519.591088 611.666352 525.82488 610.7532928 531.7502528 608.716L571.0444064 649.0624992C553.5210976 659.7173056 533.5413216 665.3046016 513.2037536 665.2375008 478.35048 665.7183232 444.7751616 651.706224 420.0397472 626.3570592 395.304336 601.0078944 381.4887584 566.4531936 381.704608 530.4755008 382.0505632 509.9940672 386.5699072 489.8172256 394.9686496 471.2575008L394.9691328 471.2575008ZM250.32366144 323.1064992L310.80530368 385.0809984 321.3111296 395.834C276.74802144 429.8944768 242.90047776 476.758048 224 530.566 270.95447232 652.9677568 385.7797376 733.1641952 513.3209792 732.634 552.795792 732.2577216 591.9220864 724.9650592 629.0313504 711.0670016L639.5376608 721.8504992 715.8366528 800 750.0246688 764.984 284.36441536 288 250.32366144 323.1064992ZM513.3209792 395.804C548.171584 395.3149056 581.747136 409.3202048 606.4834688 434.6646688 631.2197984 460.0091328 645.0362432 494.5609472 644.8201216 530.536 645.395344 547.3564096 641.7673792 564.0465984 634.285232 579.0010016L710.5832576 657.15C749.9228352 623.0686336 780.61536 579.597584 800 530.5055008 753.0455648 408.1044512 638.2210656 327.9083456 510.6804736 328.435392 474.8922688 329.231568 439.4248288 335.593488 405.4754432 347.3089984L463.316096 406.5869984C478.951488 399.1729376 496.0002656 395.4775296 513.2042368 395.7735008L513.3209792 395.804Z"></path></svg>