<svg xmlns="http://www.w3.org/2000/svg" class="lds-spin" preserveAspectRatio="xMidYMid" viewBox="0 0 1024 1024" style="width: 1em; height: 1em; vertical-align: middle; fill: #3a84ff; overflow: hidden;"><path d="M874.3255040000001 512A55.125504 55.125504 0 0 1 819.2 567.125504 55.125504 55.125504 0 0 1 764.074496 512 55.125504 55.125504 0 0 1 874.3255040000001 512z" style=""><animateTransform attributeName="transform" begin="-0.9166666666666666s" dur="1s" keyTimes="0;1" repeatCount="indefinite" type="scale" values="1.2 1.2;1 1" style=""></animateTransform><animate attributeName="fill-opacity" begin="-0.9166666666666666s" dur="1s" keyTimes="0;1" repeatCount="indefinite" values="1;0" style=""></animate></path><path fill-opacity=".917" d="M826.5220089266763 693.5878203150381A55.978496 55.978496 0 0 1 750.0539613250309 714.0773719166838 55.978496 55.978496 0 0 1 729.5644097233852 637.6093243150382 55.978496 55.978496 0 0 1 826.5220089266763 693.5878203150381z" style=""><animateTransform attributeName="transform" begin="-0.8333333333333334s" dur="1s" keyTimes="0;1" repeatCount="indefinite" type="scale" values="1.2 1.2;1 1" style=""></animateTransform><animate attributeName="fill-opacity" begin="-0.8333333333333334s" dur="1s" keyTimes="0;1" repeatCount="indefinite" values="1;0" style=""></animate></path><path fill-opacity=".833" d="M694.0170969047495 827.2583983352753A56.83200000000001 56.83200000000001 0 0 1 616.3831411568723 806.4564425873981 56.83200000000001 56.83200000000001 0 0 1 637.1850969047495 728.8224868395207 56.83200000000001 56.83200000000001 0 0 1 694.0170969047495 827.2583983352753z" style=""><animateTransform attributeName="transform" begin="-0.75s" dur="1s" keyTimes="0;1" repeatCount="indefinite" type="scale" values="1.2 1.2;1 1" style=""></animateTransform><animate attributeName="fill-opacity" begin="-0.75s" dur="1s" keyTimes="0;1" repeatCount="indefinite" values="1;0" style=""></animate></path><path fill-opacity=".75" d="M512 876.8855040000001A57.685504 57.685504 0 0 1 454.314496 819.2 57.685504 57.685504 0 0 1 512 761.5144959999999 57.685504 57.685504 0 0 1 512 876.8855040000001z" style=""><animateTransform attributeName="transform" begin="-0.6666666666666666s" dur="1s" keyTimes="0;1" repeatCount="indefinite" type="scale" values="1.2 1.2;1 1" style=""></animateTransform><animate attributeName="fill-opacity" begin="-0.6666666666666666s" dur="1s" keyTimes="0;1" repeatCount="indefinite" values="1;0" style=""></animate></path><path fill-opacity=".667" d="M329.1269198807941 828.7408206328269A58.538495999999995 58.538495999999995 0 0 1 307.7003432454604 748.7757479974932 58.538495999999995 58.538495999999995 0 0 1 387.6654158807941 727.3491713621594 58.538495999999995 58.538495999999995 0 0 1 329.1269198807941 828.7408206328269z" style=""><animateTransform attributeName="transform" begin="-0.5833333333333334s" dur="1s" keyTimes="0;1" repeatCount="indefinite" type="scale" values="1.2 1.2;1 1" style=""></animateTransform><animate attributeName="fill-opacity" begin="-0.5833333333333334s" dur="1s" keyTimes="0;1" repeatCount="indefinite" values="1;0" style=""></animate></path><path fill-opacity=".583" d="M194.5170177632531 695.2980006130954A59.39199999999999 59.39199999999999 0 0 1 216.2559985448185 614.16701983153 59.39199999999999 59.39199999999999 0 0 1 297.3869793263839 635.9060006130953 59.39199999999999 59.39199999999999 0 0 1 194.5170177632531 695.2980006130954z" style=""><animateTransform attributeName="transform" begin="-0.5s" dur="1s" keyTimes="0;1" repeatCount="indefinite" type="scale" values="1.2 1.2;1 1" style=""></animateTransform><animate attributeName="fill-opacity" begin="-0.5s" dur="1s" keyTimes="0;1" repeatCount="indefinite" values="1;0" style=""></animate></path><path fill-opacity=".5" d="M144.55449600000003 512A60.245504000000004 60.245504000000004 0 0 1 204.80000000000004 451.754496 60.245504000000004 60.245504000000004 0 0 1 265.04550400000005 512 60.245504000000004 60.245504000000004 0 0 1 144.55449600000003 512z" style=""><animateTransform attributeName="transform" begin="-0.4166666666666667s" dur="1s" keyTimes="0;1" repeatCount="indefinite" type="scale" values="1.2 1.2;1 1" style=""></animateTransform><animate attributeName="fill-opacity" begin="-0.4166666666666667s" dur="1s" keyTimes="0;1" repeatCount="indefinite" values="1;0" style=""></animate></path><path fill-opacity=".417" d="M193.04947448121268 327.85151812453734A61.098496 61.098496 0 0 1 276.5115721502346 305.48791645551546 61.098496 61.098496 0 0 1 298.87517381925653 388.95001412453735 61.098496 61.098496 0 0 1 193.04947448121268 327.85151812453734z" style=""><animateTransform attributeName="transform" begin="-0.3333333333333333s" dur="1s" keyTimes="0;1" repeatCount="indefinite" type="scale" values="1.2 1.2;1 1" style=""></animateTransform><animate attributeName="fill-opacity" begin="-0.3333333333333333s" dur="1s" keyTimes="0;1" repeatCount="indefinite" values="1;0" style=""></animate></path><path fill-opacity=".333" d="M332.5476411431614 201.1754130120454A51.711999999999996 51.711999999999996 0 0 1 403.1875468236623 220.1033186925463 51.711999999999996 51.711999999999996 0 0 1 384.2596411431614 290.7432243730472 51.711999999999996 51.711999999999996 0 0 1 332.5476411431614 201.1754130120454z" style=""><animateTransform attributeName="transform" begin="-0.25s" dur="1s" keyTimes="0;1" repeatCount="indefinite" type="scale" values="1.2 1.2;1 1" style=""></animateTransform><animate attributeName="fill-opacity" begin="-0.25s" dur="1s" keyTimes="0;1" repeatCount="indefinite" values="1;0" style=""></animate></path><path fill-opacity=".25" d="M512 152.234496A52.565504000000004 52.565504000000004 0 0 1 564.565504 204.8 52.565504000000004 52.565504000000004 0 0 1 512 257.365504 52.565504000000004 52.565504000000004 0 0 1 512 152.234496z" style=""><animateTransform attributeName="transform" begin="-0.16666666666666666s" dur="1s" keyTimes="0;1" repeatCount="indefinite" type="scale" values="1.2 1.2;1 1" style=""></animateTransform><animate attributeName="fill-opacity" begin="-0.16666666666666666s" dur="1s" keyTimes="0;1" repeatCount="indefinite" values="1;0" style=""></animate></path><path fill-opacity=".167" d="M692.3075781671167 199.69299071449373A53.418496000000005 53.418496000000005 0 0 1 711.8601047350743 272.66401328245115 53.418496000000005 53.418496000000005 0 0 1 638.8890821671168 292.21653985040854 53.418496000000005 53.418496000000005 0 0 1 692.3075781671167 199.69299071449373z" style=""><animateTransform attributeName="transform" begin="-0.08333333333333333s" dur="1s" keyTimes="0;1" repeatCount="indefinite" type="scale" values="1.2 1.2;1 1" style=""></animateTransform><animate attributeName="fill-opacity" begin="-0.08333333333333333s" dur="1s" keyTimes="0;1" repeatCount="indefinite" values="1;0" style=""></animate></path><path fill-opacity=".083" d="M825.0362880000001 331.264A54.27213621356492 54.27213621356492 0 0 1 805.1712000000001 405.401088 54.27213621356492 54.27213621356492 0 0 1 731.034112 385.536 54.27213621356492 54.27213621356492 0 0 1 825.0362880000001 331.264z" style=""><animateTransform attributeName="transform" begin="0s" dur="1s" keyTimes="0;1" repeatCount="indefinite" type="scale" values="1.2 1.2;1 1" style=""></animateTransform><animate attributeName="fill-opacity" begin="0s" dur="1s" keyTimes="0;1" repeatCount="indefinite" values="1;0" style=""></animate></path></svg>