<?xml version="1.0" encoding="UTF-8"?>
<svg width="80px" height="80px" viewBox="0 0 80 80" version="1.1" xmlns="http://www.w3.org/2000/svg" xmlns:xlink="http://www.w3.org/1999/xlink">
    <title>画板</title>
    <defs>
        <linearGradient x1="50%" y1="0%" x2="50%" y2="100%" id="linearGradient-1">
            <stop stop-color="#00CEFF" offset="0%"></stop>
            <stop stop-color="#0064F9" offset="100%"></stop>
        </linearGradient>
        <rect id="path-2" x="0" y="0" width="80" height="80" rx="12"></rect>
    </defs>
    <g id="画板" stroke="none" stroke-width="1" fill="none" fill-rule="evenodd">
        <mask id="mask-3" fill="white">
            <use xlink:href="#path-2"></use>
        </mask>
        <use id="矩形" fill="url(#linearGradient-1)" xlink:href="#path-2"></use>
        <g id="编组" mask="url(#mask-3)" fill="#FFFFFF" fill-rule="nonzero">
            <g transform="translate(9.000000, 15.000000)" id="路径">
                <path d="M0,34.4586037 C0,28.2139655 3.67175573,22.6100637 9.33069793,20.2200149 C15.0703381,17.7994548 21.596783,19.0402461 26.0250818,23.413527 C26.9228462,24.2983536 29.1218648,26.5460165 29.1218648,26.5460165 C29.1218648,26.5460165 23.7857143,31.926169 23.5133588,32.2007704 C22.4138495,31.1023649 20.9411123,29.556461 19.589422,28.7224865 C14.6466739,25.6510195 9.35087241,28.7733386 7.52508179,32.0075324 C5.32606325,35.892633 6.19356598,40.8456279 9.6434024,43.581471 C13.1941112,46.408848 18.1772083,46.2054395 21.3950382,43.0220979 C25.2080153,39.2488718 33.4392039,30.9091269 33.4392039,30.9091269 C33.4392039,30.9091269 36.8890403,34.3874108 37,34.4992854 C33.1164122,38.333534 29.2328244,42.6661332 25.1273173,46.2461212 C20.6586696,50.1413923 15.3830425,50.9855372 9.88549618,48.8700897 C4.32742639,46.7343014 1.09950927,42.5135769 0.141221374,36.5638808 C0.030261723,35.8519514 0.020174482,35.1501923 0,34.4586037 Z"></path>
                <path d="M62,34.4974131 C62,43.4742482 54.5057312,50.5843096 45.681834,49.9620517 C42.0152831,49.6968271 38.8322334,48.2788952 36.1629038,45.708256 C35.1858284,44.7697687 33.9670024,43.4436454 33,42.4949571 C33.1913859,42.3011391 38.4091699,37.0170475 38.6005557,36.8232295 C39.1948593,37.4454874 40.1014241,38.3431709 40.7259465,38.9450269 C43.5161514,41.6890821 47.5251824,42.31134 50.9902744,40.5567768 C54.2740535,38.8838212 56.2886419,35.1400729 55.8152136,31.5493389 C55.3014936,27.5607678 52.5918722,24.5004832 48.7843001,23.7150101 C45.8228552,23.1029532 43.1635985,23.8374215 40.9274053,25.9082141 C39.5776311,27.1629308 37.9055228,28.8358865 36.6262591,30.1722108 C36.5154568,30.0600003 33.2216047,26.72429 33,26.4998692 C34.6318166,24.939124 36.2837791,22.9499389 38.1573463,21.6544184 C47.4445988,15.2278206 60.4185481,21.1137681 61.8589788,32.4062186 C61.9496353,33.0896822 61.9798541,33.7935477 62,34.4974131 Z"></path>
                <path d="M9.18351213,42.1083156 C6.79986028,39.7131585 6.28907774,35.1854712 8.04176293,31.9394031 C8.37226928,31.3196037 9.17349679,30.2796013 9.17349679,30.2796013 C9.17349679,30.2796013 8.71279097,31.1515225 8.57257615,31.5402102 C7.45085763,34.7652682 8.9030825,38.3159836 11.59721,40.1753818 C14.3213836,42.0452852 17.886846,41.6986177 20.2304365,39.2719454 C23.6857301,35.7002199 27.1209931,32.1074843 30.5362254,28.5042436 C30.786609,28.2416167 31.0470079,28 31.0470079,28 L33,30.0484896 C33,30.0484896 27.8621286,35.3850677 25.4484307,37.9167907 C23.9661598,39.4610367 22.5239502,41.047303 21.0116333,42.5705389 C17.8267539,45.7850918 12.8391127,45.806102 9.62418727,42.6545795 C9.47395711,42.4864983 9.33374229,42.2869019 9.18351213,42.1083156 L9.22357351,42.0557902 L9.18351213,42.1083156 Z"></path>
                <path d="M50.4305997,24.921072 C47.3678282,23.2933903 43.7499914,23.8635972 41.2224616,26.3103034 C40.2510972,27.2537368 38.1200426,29.441258 37,30.6024067 C37.1090307,30.7164481 38.7444912,32.4270689 38.8634338,32.5514777 C39.7356793,31.6080444 40.9251051,30.3121195 41.856822,29.4308906 C43.2246617,28.1453331 44.7213558,27.4610848 46.3072569,27.4196152 C46.4261995,27.4092478 46.5550539,27.4092478 46.6739965,27.4092478 C50.4999828,27.4092478 53.5924899,30.6542437 53.5924899,34.6456924 C53.5924899,36.2837414 53.0770721,37.7870143 52.1949146,39 C52.3931522,38.844489 52.5021829,38.7615498 52.6112136,38.637141 C56.4173762,34.6456924 55.6640732,27.7099023 50.4305997,24.921072 Z"></path>
                <path d="M31.0149516,8.93063932 C35.7396658,8.93063932 39.6669598,12.3860072 40.5540897,16.9794934 C42.2187042,16.3642943 43.9929639,15.9951749 45.8469657,15.9131484 C45.7074172,15.1749095 45.5080622,14.4571773 45.2688361,13.7599517 L48,11.6477684 C47.840516,11.2581423 47.6710642,10.8787696 47.4916447,10.5096502 L46.3752565,8.51025332 C46.1360305,8.1411339 45.8868367,7.78226779 45.6276752,7.42340169 L42.4778657,8.7973462 C41.9695104,8.19240048 41.4212841,7.62846803 40.8331867,7.11580217 L42.1688654,3.87575392 C41.7801231,3.5681544 41.3714453,3.28106152 40.9627675,3.00422195 L39.4277338,2.09167672 C38.979185,1.85585042 38.5206684,1.64053076 38.0621519,1.43546441 L35.9988273,4.25512666 C35.2811492,3.99879373 34.5335679,3.79372738 33.766051,3.65018094 L33.3474055,0.153799759 C32.5798886,0.0512665862 31.802404,0 31.0049839,0 C30.1876283,0 29.3802404,0.0512665862 28.592788,0.164053076 L28.1741425,3.66043426 C27.4165934,3.8039807 26.6789798,4.01930036 25.9613017,4.27563329 L23.9079449,1.46622437 C22.4327177,2.10193004 21.0472002,2.93244873 19.7912636,3.92702051 L21.13691,7.16706876 C20.5587804,7.67973462 20.0205218,8.23341375 19.532102,8.82810615 L16.3822926,7.45416164 C15.4253884,8.74607961 14.6180006,10.1712907 14,11.699035 L16.7411316,13.8214717 C16.5118734,14.5084439 16.3224861,15.2056695 16.1829376,15.933655 C18.0369393,16.0156815 19.8111991,16.384801 21.4758135,17 C22.3629434,12.3860072 26.2902375,8.93063932 31.0149516,8.93063932 Z"></path>
                <path d="M31,13.0610169 C34.3115124,13.0610169 37.013544,15.7050847 37.0948081,19 C38.0090293,18.420339 38.9841986,17.9118644 40,17.4949153 C39.217833,13.2338983 35.489842,10 31,10 C26.510158,10 22.782167,13.2338983 22,17.4949153 C23.0158014,17.9118644 23.9909707,18.4101695 24.9051919,19 C24.986456,15.7050847 27.6884876,13.0610169 31,13.0610169 Z"></path>
            </g>
        </g>
    </g>
</svg>